<?xml version="1.0" encoding="UTF-8" standalone="no"?><!-- Generator: Gravit.io --><svg xmlns="http://www.w3.org/2000/svg" xmlns:xlink="http://www.w3.org/1999/xlink" style="isolation:isolate" viewBox="0 0 18 18" width="18pt" height="18pt"><defs><clipPath id="_clipPath_gvA4lPE6oaM1uio6dMW2rZnTduxX193K"><rect width="18" height="18"/></clipPath></defs><g clip-path="url(#_clipPath_gvA4lPE6oaM1uio6dMW2rZnTduxX193K)"><clipPath id="_clipPath_sPl1Tn3pS2APdnWadtPop8jXHw6vSvY4"><rect x="0" y="0" width="18" height="18" transform="matrix(1,0,0,1,0,0)" fill="rgb(255,255,255)"/></clipPath><g clip-path="url(#_clipPath_sPl1Tn3pS2APdnWadtPop8jXHw6vSvY4)"><g><path d=" M 0 0 L 9 0 L 9 9 L 0 9 L 0 0 Z " fill="none"/><path d=" M 9.808 3.548 C 10.696 3.548 11.423 2.821 11.423 1.933 C 11.423 1.044 10.696 0.317 9.808 0.317 C 8.919 0.317 8.192 1.044 8.192 1.933 C 8.192 2.821 8.919 3.548 9.808 3.548 Z  M 6.819 6.294 L 4.558 17.683 L 6.254 17.683 L 7.708 11.221 L 9.404 12.837 L 9.404 17.683 L 11.019 17.683 L 11.019 11.625 L 9.323 10.009 L 9.808 7.587 C 10.858 8.798 12.473 9.606 14.25 9.606 L 14.25 7.99 C 12.715 7.99 11.423 7.183 10.777 6.052 L 9.969 4.759 C 9.646 4.275 9.162 3.952 8.596 3.952 C 8.354 3.952 8.192 4.033 7.95 4.033 L 3.75 5.809 L 3.75 9.606 L 5.365 9.606 L 5.365 6.859 L 6.819 6.294 Z " fill="rgb(0,0,0)"/></g></g></g></svg>