<?xml version="1.0" encoding="UTF-8" standalone="no"?><!-- Generator: Gravit.io --><svg xmlns="http://www.w3.org/2000/svg" xmlns:xlink="http://www.w3.org/1999/xlink" style="isolation:isolate" viewBox="0 0 48 48" width="48pt" height="48pt"><defs><clipPath id="_clipPath_f5YJzY6ydgmePDzuJkP97FC9pskgU1xE"><rect width="48" height="48"/></clipPath></defs><g clip-path="url(#_clipPath_f5YJzY6ydgmePDzuJkP97FC9pskgU1xE)"><path d=" M 0 0 L 24 0 L 24 24 L 0 24 L 0 0 Z " fill="none"/><path d=" M 26.154 9.462 C 28.523 9.462 30.462 7.523 30.462 5.154 C 30.462 2.785 28.523 0.846 26.154 0.846 C 23.785 0.846 21.846 2.785 21.846 5.154 C 21.846 7.523 23.785 9.462 26.154 9.462 Z  M 18.185 16.785 L 12.154 47.154 L 16.677 47.154 L 20.554 29.923 L 25.077 34.231 L 25.077 47.154 L 29.385 47.154 L 29.385 31 L 24.862 26.692 L 26.154 20.231 C 28.954 23.462 33.262 25.615 38 25.615 L 38 21.308 C 33.908 21.308 30.462 19.154 28.738 16.138 L 26.585 12.692 C 25.723 11.4 24.431 10.538 22.923 10.538 C 22.277 10.538 21.846 10.754 21.2 10.754 L 10 15.492 L 10 25.615 L 14.308 25.615 L 14.308 18.292 L 18.185 16.785 Z " fill="rgb(0,0,0)"/></g></svg>