<?xml version="1.0" encoding="UTF-8" standalone="no"?><!-- Generator: Gravit.io --><svg xmlns="http://www.w3.org/2000/svg" xmlns:xlink="http://www.w3.org/1999/xlink" style="isolation:isolate" viewBox="0 0 18 18" width="18pt" height="18pt"><defs><clipPath id="_clipPath_Z7GoWZxz7SovxCqd7tMbZnlD1aogs57E"><rect width="18" height="18"/></clipPath></defs><g clip-path="url(#_clipPath_Z7GoWZxz7SovxCqd7tMbZnlD1aogs57E)"><clipPath id="_clipPath_PJy2Y3N89h5Np1Z8jXgfeZs7ygnAkHWe"><rect x="0" y="0" width="18" height="18" transform="matrix(1,0,0,1,0,0)" fill="rgb(255,255,255)"/></clipPath><g clip-path="url(#_clipPath_PJy2Y3N89h5Np1Z8jXgfeZs7ygnAkHWe)"><g><path d=" M 0 0 L 9 0 L 9 9 L 0 9 L 0 0 Z " fill="none"/><path d=" M 9 6.137 C 7.418 6.137 6.137 7.418 6.137 9 C 6.137 10.582 7.418 11.864 9 11.864 C 10.582 11.864 11.864 10.582 11.864 9 C 11.864 7.418 10.582 6.137 9 6.137 Z  M 15.4 8.284 C 15.071 5.299 12.701 2.929 9.716 2.6 L 9.716 1.125 L 8.284 1.125 L 8.284 2.6 C 5.299 2.929 2.929 5.299 2.6 8.284 L 1.125 8.284 L 1.125 9.716 L 2.6 9.716 C 2.929 12.701 5.299 15.071 8.284 15.4 L 8.284 16.875 L 9.716 16.875 L 9.716 15.4 C 12.701 15.071 15.071 12.701 15.4 9.716 L 16.875 9.716 L 16.875 8.284 L 15.4 8.284 Z  M 9 14.011 C 6.23 14.011 3.988 11.771 3.988 9 C 3.988 6.23 6.23 3.988 9 3.988 C 11.771 3.988 14.011 6.23 14.011 9 C 14.011 11.771 11.771 14.011 9 14.011 Z " fill="rgb(0,0,0)"/></g></g></g></svg>