<?xml version="1.0" encoding="UTF-8" standalone="no"?><!-- Generator: Gravit.io --><svg xmlns="http://www.w3.org/2000/svg" xmlns:xlink="http://www.w3.org/1999/xlink" style="isolation:isolate" viewBox="0 0 48 48" width="48pt" height="48pt"><defs><clipPath id="_clipPath_Z3QIuvmnMJwQ2cpnc1RCkMzqJDNLIst0"><rect width="48" height="48"/></clipPath></defs><g clip-path="url(#_clipPath_Z3QIuvmnMJwQ2cpnc1RCkMzqJDNLIst0)"><path d=" M 0 0 L 24 0 L 24 24 L 0 24 L 0 0 Z " fill="none"/><path d=" M 24 16.364 C 19.781 16.364 16.364 19.781 16.364 24 C 16.364 28.219 19.781 31.636 24 31.636 C 28.219 31.636 31.636 28.219 31.636 24 C 31.636 19.781 28.219 16.364 24 16.364 Z  M 41.067 22.091 C 40.189 14.13 33.87 7.811 25.909 6.933 L 25.909 3 L 22.091 3 L 22.091 6.933 C 14.13 7.811 7.811 14.13 6.933 22.091 L 3 22.091 L 3 25.909 L 6.933 25.909 C 7.811 33.87 14.13 40.189 22.091 41.067 L 22.091 45 L 25.909 45 L 25.909 41.067 C 33.87 40.189 40.189 33.87 41.067 25.909 L 45 25.909 L 45 22.091 L 41.067 22.091 Z  M 24 37.364 C 16.612 37.364 10.636 31.388 10.636 24 C 10.636 16.612 16.612 10.636 24 10.636 C 31.388 10.636 37.364 16.612 37.364 24 C 37.364 31.388 31.388 37.364 24 37.364 Z " fill="rgb(0,0,0)"/></g></svg>