<?xml version="1.0" encoding="UTF-8" standalone="no"?><!-- Generator: Gravit.io --><svg xmlns="http://www.w3.org/2000/svg" xmlns:xlink="http://www.w3.org/1999/xlink" style="isolation:isolate" viewBox="0 0 48 48" width="48pt" height="48pt"><defs><clipPath id="_clipPath_Drqvc3q57C1HvPdU3axJ6v825JcTddnv"><rect width="48" height="48"/></clipPath></defs><g clip-path="url(#_clipPath_Drqvc3q57C1HvPdU3axJ6v825JcTddnv)"><clipPath id="_clipPath_KRz6taHFLbkAnXgPtB26ZYX1fIwCk0PI"><rect x="0" y="0" width="48" height="48" transform="matrix(1,0,0,1,0,0)" fill="rgb(255,255,255)"/></clipPath><g clip-path="url(#_clipPath_KRz6taHFLbkAnXgPtB26ZYX1fIwCk0PI)"><g><path d=" M 2 2.943 L 18.302 2.943 L 18.302 19.245 L 2 19.245 L 2 2.943 Z " fill="none"/><path d=" M 23.736 4.302 C 15.85 4.302 9.472 10.68 9.472 18.566 C 9.472 29.264 23.736 45.057 23.736 45.057 C 23.736 45.057 38 29.264 38 18.566 C 38 10.68 31.622 4.302 23.736 4.302 Z  M 23.736 23.66 C 20.924 23.66 18.642 21.378 18.642 18.566 C 18.642 15.754 20.924 13.472 23.736 13.472 C 26.548 13.472 28.83 15.754 28.83 18.566 C 28.83 21.378 26.548 23.66 23.736 23.66 Z " fill="rgb(0,0,0)"/></g></g></g></svg>