<?xml version="1.0" encoding="UTF-8" standalone="no"?><!-- Generator: Gravit.io --><svg xmlns="http://www.w3.org/2000/svg" xmlns:xlink="http://www.w3.org/1999/xlink" style="isolation:isolate" viewBox="0 0 18 18" width="18pt" height="18pt"><defs><clipPath id="_clipPath_3RjtJ7eif9GNRLn0UU1bOOBv58XZZHIR"><rect width="18" height="18"/></clipPath></defs><g clip-path="url(#_clipPath_3RjtJ7eif9GNRLn0UU1bOOBv58XZZHIR)"><clipPath id="_clipPath_Fukk0jBaN4yKPUpVMWasEs0OdcJ1qO45"><rect x="0" y="0" width="18" height="18" transform="matrix(1,0,0,1,0,0)" fill="rgb(255,255,255)"/></clipPath><g clip-path="url(#_clipPath_Fukk0jBaN4yKPUpVMWasEs0OdcJ1qO45)"><g><clipPath id="_clipPath_246NBRs3nzvwEjk4RwzGrUGtg5r35obT"><rect x="0" y="0" width="18" height="18" transform="matrix(1,0,0,1,0,0)" fill="rgb(255,255,255)"/></clipPath><g clip-path="url(#_clipPath_246NBRs3nzvwEjk4RwzGrUGtg5r35obT)"><g><g><path d=" M 0.75 1.104 L 6.863 1.104 L 6.863 7.217 L 0.75 7.217 L 0.75 1.104 Z " fill="none"/><path d=" M 8.901 1.613 C 5.944 1.613 3.552 4.005 3.552 6.962 C 3.552 10.974 8.901 16.896 8.901 16.896 C 8.901 16.896 14.25 10.974 14.25 6.962 C 14.25 4.005 11.858 1.613 8.901 1.613 Z  M 8.901 8.872 C 7.846 8.872 6.991 8.017 6.991 6.962 C 6.991 5.908 7.846 5.052 8.901 5.052 C 9.955 5.052 10.811 5.908 10.811 6.962 C 10.811 8.017 9.955 8.872 8.901 8.872 Z " fill="rgb(0,0,0)"/></g></g></g></g></g></g></svg>